<svg width="60" height="60" viewBox="0 0 60 60" fill="none" xmlns="http://www.w3.org/2000/svg">
<g filter="url(#filter0_d_5003_2588)">
<path d="M44.3454 37.1465H43.6909V18.822C43.6909 17.0223 42.2184 15.5498 40.4187 15.5498H23.7304C22.0943 15.5498 20.7854 16.8587 20.7854 18.4948V20.7854C20.7854 21.1453 21.0799 21.4398 21.4398 21.4398H25.3665V28.6387H23.0759C21.9961 28.6387 21.1126 29.5222 21.1126 30.602V31.9109H18.1676C16.7278 31.9109 15.5498 33.0889 15.5498 34.5287V35.8376V42.382C15.5498 43.8218 16.7278 44.9998 18.1676 44.9998H33.2198C34.6596 44.9998 35.8376 43.8218 35.8376 42.382V41.7276H41.7276C43.5273 41.7276 44.9998 40.2551 44.9998 38.4554V37.8009C44.9998 37.441 44.7053 37.1465 44.3454 37.1465ZM22.0943 20.1309V18.4948C22.0943 17.5786 22.8141 16.8587 23.7304 16.8587C24.6466 16.8587 25.3665 17.5786 25.3665 18.4948V20.1309H22.0943ZM22.4215 30.602C22.4215 30.2421 22.716 29.9476 23.0759 29.9476H28.3115C28.6714 29.9476 28.9659 30.2421 28.9659 30.602V31.9109H22.4215V30.602ZM34.5287 42.382C34.5287 43.1019 33.9397 43.6909 33.2198 43.6909H18.1676C17.4477 43.6909 16.8587 43.1019 16.8587 42.382V36.6556L23.4031 37.9973V40.7459C23.4031 41.1059 23.6976 41.4004 24.0576 41.4004H27.3298C27.6898 41.4004 27.9843 41.1059 27.9843 40.7459V37.9973L34.5287 36.6556V42.382ZM24.712 40.0915V38.259L25.5628 38.4226H25.6937C25.6937 38.4226 25.7919 38.4226 25.8246 38.4226L26.6754 38.259V40.0915H24.712ZM34.5287 35.314L25.6937 37.1465L16.8587 35.314V34.5287C16.8587 33.8088 17.4477 33.2198 18.1676 33.2198H33.2198C33.9397 33.2198 34.5287 33.8088 34.5287 34.5287V35.314ZM33.2198 31.9109H30.2748V30.602C30.2748 29.5222 29.3913 28.6387 28.3115 28.6387H26.6754V18.4948C26.6754 17.8731 26.479 17.3168 26.1845 16.8587H40.4187C41.4985 16.8587 42.382 17.7422 42.382 18.822V37.1465H35.8376V35.8376V34.5287C35.8376 33.0889 34.6596 31.9109 33.2198 31.9109ZM41.7276 40.4187H35.8376V38.4554H43.6909C43.6909 39.5352 42.8074 40.4187 41.7276 40.4187ZM39.7643 29.9476H32.8926C32.5326 29.9476 32.2381 29.6531 32.2381 29.2931C32.2381 28.9332 32.5326 28.6387 32.8926 28.6387H39.7643C40.1242 28.6387 40.4187 28.9332 40.4187 29.2931C40.4187 29.6531 40.1242 29.9476 39.7643 29.9476ZM39.7643 26.6754H29.2931C28.9332 26.6754 28.6387 26.3809 28.6387 26.0209C28.6387 25.661 28.9332 25.3665 29.2931 25.3665H39.7643C40.1242 25.3665 40.4187 25.661 40.4187 26.0209C40.4187 26.3809 40.1242 26.6754 39.7643 26.6754ZM28.6387 22.7487C28.6387 22.3888 28.9332 22.0943 29.2931 22.0943H39.7643C40.1242 22.0943 40.4187 22.3888 40.4187 22.7487C40.4187 23.1086 40.1242 23.4031 39.7643 23.4031H29.2931C28.9332 23.4031 28.6387 23.1086 28.6387 22.7487ZM28.6387 19.4765C28.6387 19.1165 28.9332 18.822 29.2931 18.822H39.7643C40.1242 18.822 40.4187 19.1165 40.4187 19.4765C40.4187 19.8364 40.1242 20.1309 39.7643 20.1309H29.2931C28.9332 20.1309 28.6387 19.8364 28.6387 19.4765Z" fill="white"/>
</g>
<defs>
<filter id="filter0_d_5003_2588" x="-6" y="-6" width="72" height="72" filterUnits="userSpaceOnUse" color-interpolation-filters="sRGB">
<feFlood flood-opacity="0" result="BackgroundImageFix"/>
<feColorMatrix in="SourceAlpha" type="matrix" values="0 0 0 0 0 0 0 0 0 0 0 0 0 0 0 0 0 0 127 0" result="hardAlpha"/>
<feOffset/>
<feGaussianBlur stdDeviation="3"/>
<feComposite in2="hardAlpha" operator="out"/>
<feColorMatrix type="matrix" values="0 0 0 0 0.670588 0 0 0 0 0.407843 0 0 0 0 1 0 0 0 0.6 0"/>
<feBlend mode="normal" in2="BackgroundImageFix" result="effect1_dropShadow_5003_2588"/>
<feBlend mode="normal" in="SourceGraphic" in2="effect1_dropShadow_5003_2588" result="shape"/>
</filter>
</defs>
</svg>
