<svg width="60" height="60" viewBox="0 0 60 60" fill="none" xmlns="http://www.w3.org/2000/svg">
<g filter="url(#filter0_d_5003_2807)">
<path d="M44.3454 37.1467H43.6909V18.8223C43.6909 17.0225 42.2184 15.55 40.4187 15.55H23.7304C22.0943 15.55 20.7854 16.8589 20.7854 18.495V20.7856C20.7854 21.1456 21.0799 21.4401 21.4398 21.4401H25.3665V28.6389H23.0759C21.9961 28.6389 21.1126 29.5224 21.1126 30.6023V31.9112H18.1676C16.7278 31.9112 15.5498 33.0892 15.5498 34.5289V35.8378V42.3823C15.5498 43.8221 16.7278 45.0001 18.1676 45.0001H33.2198C34.6596 45.0001 35.8376 43.8221 35.8376 42.3823V41.7278H41.7276C43.5273 41.7278 44.9998 40.2553 44.9998 38.4556V37.8012C44.9998 37.4412 44.7053 37.1467 44.3454 37.1467ZM22.0943 20.1312V18.495C22.0943 17.5788 22.8141 16.8589 23.7304 16.8589C24.6466 16.8589 25.3665 17.5788 25.3665 18.495V20.1312H22.0943ZM22.4215 30.6023C22.4215 30.2423 22.716 29.9478 23.0759 29.9478H28.3115C28.6714 29.9478 28.9659 30.2423 28.9659 30.6023V31.9112H22.4215V30.6023ZM34.5287 42.3823C34.5287 43.1022 33.9397 43.6912 33.2198 43.6912H18.1676C17.4477 43.6912 16.8587 43.1022 16.8587 42.3823V36.6559L23.4031 37.9975V40.7462C23.4031 41.1061 23.6976 41.4006 24.0576 41.4006H27.3298C27.6898 41.4006 27.9843 41.1061 27.9843 40.7462V37.9975L34.5287 36.6559V42.3823ZM24.712 40.0917V38.2593L25.5628 38.4229H25.6937C25.6937 38.4229 25.7919 38.4229 25.8246 38.4229L26.6754 38.2593V40.0917H24.712ZM34.5287 35.3143L25.6937 37.1467L16.8587 35.3143V34.5289C16.8587 33.8091 17.4477 33.2201 18.1676 33.2201H33.2198C33.9397 33.2201 34.5287 33.8091 34.5287 34.5289V35.3143ZM33.2198 31.9112H30.2748V30.6023C30.2748 29.5224 29.3913 28.6389 28.3115 28.6389H26.6754V18.495C26.6754 17.8733 26.479 17.317 26.1845 16.8589H40.4187C41.4985 16.8589 42.382 17.7424 42.382 18.8223V37.1467H35.8376V35.8378V34.5289C35.8376 33.0892 34.6596 31.9112 33.2198 31.9112ZM41.7276 40.4189H35.8376V38.4556H43.6909C43.6909 39.5354 42.8074 40.4189 41.7276 40.4189ZM39.7643 29.9478H32.8926C32.5326 29.9478 32.2381 29.6533 32.2381 29.2934C32.2381 28.9334 32.5326 28.6389 32.8926 28.6389H39.7643C40.1242 28.6389 40.4187 28.9334 40.4187 29.2934C40.4187 29.6533 40.1242 29.9478 39.7643 29.9478ZM39.7643 26.6756H29.2931C28.9332 26.6756 28.6387 26.3811 28.6387 26.0212C28.6387 25.6612 28.9332 25.3667 29.2931 25.3667H39.7643C40.1242 25.3667 40.4187 25.6612 40.4187 26.0212C40.4187 26.3811 40.1242 26.6756 39.7643 26.6756ZM28.6387 22.7489C28.6387 22.389 28.9332 22.0945 29.2931 22.0945H39.7643C40.1242 22.0945 40.4187 22.389 40.4187 22.7489C40.4187 23.1089 40.1242 23.4034 39.7643 23.4034H29.2931C28.9332 23.4034 28.6387 23.1089 28.6387 22.7489ZM28.6387 19.4767C28.6387 19.1168 28.9332 18.8223 29.2931 18.8223H39.7643C40.1242 18.8223 40.4187 19.1168 40.4187 19.4767C40.4187 19.8367 40.1242 20.1312 39.7643 20.1312H29.2931C28.9332 20.1312 28.6387 19.8367 28.6387 19.4767Z" fill="white"/>
</g>
<defs>
<filter id="filter0_d_5003_2807" x="-6" y="-6" width="72" height="72" filterUnits="userSpaceOnUse" color-interpolation-filters="sRGB">
<feFlood flood-opacity="0" result="BackgroundImageFix"/>
<feColorMatrix in="SourceAlpha" type="matrix" values="0 0 0 0 0 0 0 0 0 0 0 0 0 0 0 0 0 0 127 0" result="hardAlpha"/>
<feOffset/>
<feGaussianBlur stdDeviation="3"/>
<feComposite in2="hardAlpha" operator="out"/>
<feColorMatrix type="matrix" values="0 0 0 0 0.670588 0 0 0 0 0.407843 0 0 0 0 1 0 0 0 0.6 0"/>
<feBlend mode="normal" in2="BackgroundImageFix" result="effect1_dropShadow_5003_2807"/>
<feBlend mode="normal" in="SourceGraphic" in2="effect1_dropShadow_5003_2807" result="shape"/>
</filter>
</defs>
</svg>
