<svg width="60" height="60" viewBox="0 0 60 60" fill="none" xmlns="http://www.w3.org/2000/svg">
<g filter="url(#filter0_d_5003_2579)">
<path d="M28.512 37.2923C28.8244 36.9799 28.8244 36.4743 28.512 36.1618C28.1992 35.8504 27.6926 35.8504 27.3796 36.1618C27.0675 36.4743 27.0675 36.9799 27.3796 37.2923C27.6926 37.6038 28.1992 37.6038 28.512 37.2923Z" fill="white"/>
<path d="M24.7217 18.332C24.7217 23.1769 28.6711 27.1189 33.5255 27.1189C38.3799 27.1189 42.3292 23.1769 42.3292 18.332C42.3292 13.4871 38.3799 9.54541 33.5255 9.54541C28.6711 9.54541 24.7217 13.4871 24.7217 18.332ZM40.7287 18.332C40.7287 22.2961 37.4974 25.5212 33.5255 25.5212C29.5536 25.5212 26.3222 22.2961 26.3222 18.332C26.3222 14.3682 29.5536 11.1431 33.5255 11.1431C37.4974 11.1431 40.7287 14.3682 40.7287 18.332Z" fill="white"/>
<path d="M18.8935 50.2182C19.2037 50.5303 19.7088 50.5338 20.023 50.2248L23.9033 46.4095C24.5625 45.7516 24.763 44.7775 24.4731 43.9307L25.3077 43.1273C25.7571 42.6941 26.3488 42.4554 26.9742 42.4554H37.614C39.5016 42.4554 41.2857 41.7319 42.6382 40.4182C42.6939 40.3642 42.2157 40.9263 49.8968 31.7639C51.0361 30.4187 50.8657 28.3988 49.5166 27.2605C48.1759 26.1328 46.1676 26.2948 45.0252 27.6169L40.3025 32.4615C39.7061 31.729 38.7967 31.2724 37.8142 31.2724H28.8894C27.6194 30.7421 26.2719 30.4737 24.8815 30.4737C21.0275 30.4737 17.6623 32.2502 15.8563 35.5811C15.0955 35.4372 14.293 35.6669 13.7157 36.2431L9.90833 40.0543C9.59748 40.3654 9.59686 40.8689 9.90708 41.181L18.8935 50.2182ZM24.8812 32.0711C26.1071 32.0711 27.2923 32.3173 28.4046 32.803C28.506 32.8473 28.6151 32.8701 28.7255 32.8701H37.8142C38.682 32.8701 39.415 33.5764 39.415 34.4675C39.415 35.3486 38.697 36.0652 37.8142 36.0652H31.2842C30.8423 36.0652 30.4839 36.4228 30.4839 36.8639C30.4839 37.3052 30.8423 37.6626 31.2842 37.6626H37.8142C39.5795 37.6626 41.0155 36.2293 41.0155 34.4675C41.0155 34.327 41.0055 34.1878 40.9874 34.0499C45.5559 29.3629 46.2001 28.7043 46.2277 28.6715C46.7981 27.9996 47.8107 27.9144 48.4843 28.4812C49.1585 29.0501 49.2439 30.0601 48.6719 30.7358L41.4933 39.3008C40.4451 40.3052 39.0688 40.858 37.614 40.858H26.9742C25.9316 40.858 24.9447 41.2559 24.196 41.9778L23.5158 42.6329L17.2457 36.3754C18.7112 33.6316 21.4609 32.0711 24.8812 32.0711ZM14.8484 37.372C15.1124 37.1086 15.5176 37.0611 15.8394 37.2596C15.978 37.3439 15.5802 36.9825 22.7716 44.1498C23.0915 44.4691 23.0743 44.9778 22.7759 45.2756L19.468 48.5281L11.6039 40.6195L14.8484 37.372Z" fill="white"/>
<path d="M32.5651 13.5392V14.4753C31.6335 14.8049 30.9642 15.6928 30.9642 16.7343C30.9642 18.0555 32.0413 19.1307 33.3653 19.1307C33.8066 19.1307 34.1656 19.489 34.1656 19.9294C34.1656 20.3698 33.8066 20.7281 33.3653 20.7281C33.0235 20.7281 32.6542 20.5137 32.3262 20.1239C32.0416 19.7862 31.5368 19.7428 31.1985 20.0265C30.8601 20.3105 30.8163 20.8143 31.1009 21.152C31.5287 21.6598 32.0319 22.0137 32.5651 22.1922V23.1245C32.5651 23.5658 32.9235 23.9232 33.3653 23.9232C33.8072 23.9232 34.1656 23.5658 34.1656 23.1245V22.1885C35.0972 21.8586 35.7664 20.9706 35.7664 19.9294C35.7664 18.6079 34.6894 17.533 33.3653 17.533C32.9241 17.533 32.5651 17.1747 32.5651 16.7343C32.5651 16.2939 32.9241 15.9353 33.3653 15.9353C33.649 15.9353 33.9482 16.0798 34.2309 16.3529C34.5487 16.6597 35.0553 16.6513 35.3627 16.3345C35.6701 16.0174 35.6617 15.5118 35.3442 15.205C34.938 14.8127 34.5315 14.5907 34.1656 14.4696V13.5392C34.1656 13.0979 33.8072 12.7402 33.3653 12.7402C32.9235 12.7402 32.5651 13.0979 32.5651 13.5392Z" fill="white"/>
</g>
<defs>
<filter id="filter0_d_5003_2579" x="-6" y="-6" width="72" height="72" filterUnits="userSpaceOnUse" color-interpolation-filters="sRGB">
<feFlood flood-opacity="0" result="BackgroundImageFix"/>
<feColorMatrix in="SourceAlpha" type="matrix" values="0 0 0 0 0 0 0 0 0 0 0 0 0 0 0 0 0 0 127 0" result="hardAlpha"/>
<feOffset/>
<feGaussianBlur stdDeviation="3"/>
<feComposite in2="hardAlpha" operator="out"/>
<feColorMatrix type="matrix" values="0 0 0 0 0.670588 0 0 0 0 0.407843 0 0 0 0 1 0 0 0 0.6 0"/>
<feBlend mode="normal" in2="BackgroundImageFix" result="effect1_dropShadow_5003_2579"/>
<feBlend mode="normal" in="SourceGraphic" in2="effect1_dropShadow_5003_2579" result="shape"/>
</filter>
</defs>
</svg>
