<svg width="390" height="216" viewBox="0 0 390 216" fill="none" xmlns="http://www.w3.org/2000/svg">
<path d="M348.651 114.316C349.216 116.574 349.597 118.858 349.789 121.163L348.793 121.246C348.886 122.372 348.934 123.503 348.934 124.64C348.934 125.776 348.886 126.908 348.793 128.034L349.789 128.117C349.597 130.422 349.216 132.705 348.651 134.964L347.681 134.721C347.138 136.892 346.421 139.042 345.536 141.168L346.459 141.552C345.584 143.654 344.549 145.729 343.36 147.777L342.495 147.275C341.379 149.196 340.124 151.095 338.733 152.968L339.536 153.564C338.187 155.382 336.713 157.174 335.121 158.939L334.378 158.269C332.877 159.932 331.267 161.572 329.552 163.186L330.238 163.914C328.592 165.463 326.852 166.988 325.021 168.487L324.388 167.713C322.651 169.134 320.831 170.533 318.929 171.908L319.515 172.718C317.676 174.048 315.762 175.355 313.777 176.638L313.234 175.798C311.337 177.023 309.374 178.227 307.347 179.407L307.85 180.272C305.882 181.418 303.854 182.542 301.769 183.643L301.302 182.759C299.296 183.818 297.237 184.856 295.125 185.872L295.559 186.773C293.501 187.764 291.394 188.733 289.24 189.681L288.837 188.766C286.753 189.683 284.625 190.579 282.453 191.455L282.827 192.382C280.703 193.239 278.538 194.075 276.334 194.891L275.987 193.953C273.845 194.746 271.666 195.519 269.45 196.271L269.772 197.218C267.606 197.954 265.406 198.67 263.173 199.366L262.876 198.412C260.696 199.091 258.485 199.752 256.244 200.393L256.519 201.354C254.313 201.985 252.077 202.597 249.814 203.189L249.561 202.222C247.344 202.802 245.1 203.364 242.83 203.906L243.063 204.879C240.823 205.414 238.558 205.93 236.269 206.427L236.057 205.45C233.82 205.936 231.56 206.403 229.277 206.852L229.47 207.833C227.215 208.276 224.939 208.701 222.643 209.108L222.468 208.123C220.207 208.523 217.926 208.905 215.626 209.268L215.782 210.256C213.503 210.616 211.206 210.957 208.89 211.281L208.752 210.29C206.48 210.607 204.19 210.907 201.884 211.188L202.005 212.18C199.72 212.459 197.419 212.719 195.102 212.961L194.998 211.967C192.709 212.206 190.405 212.428 188.086 212.631L188.174 213.627C185.875 213.829 183.562 214.013 181.235 214.178L181.164 213.181C178.873 213.344 176.569 213.489 174.252 213.617L174.307 214.615C172.003 214.742 169.687 214.851 167.359 214.942L167.32 213.942C165.016 214.032 162.7 214.105 160.373 214.159L160.396 215.159C158.094 215.212 155.78 215.248 153.457 215.266L153.45 214.266C152.291 214.275 151.13 214.28 149.967 214.28C148.803 214.28 147.643 214.275 146.484 214.266L146.476 215.266C144.153 215.248 141.84 215.212 139.537 215.159L139.56 214.159C137.234 214.105 134.918 214.032 132.613 213.942L132.574 214.942C130.247 214.851 127.93 214.742 125.626 214.615L125.681 213.617C123.365 213.489 121.06 213.344 118.769 213.181L118.698 214.178C116.372 214.013 114.059 213.829 111.76 213.627L111.847 212.631C109.529 212.428 107.225 212.206 104.936 211.967L104.832 212.961C102.515 212.719 100.214 212.459 97.9285 212.18L98.0495 211.188C95.7433 210.907 93.4537 210.607 91.1815 210.29L91.0433 211.281C88.7279 210.957 86.4305 210.616 84.1518 210.256L84.3078 209.268C82.0074 208.905 79.7262 208.523 77.4651 208.123L77.2909 209.108C74.9942 208.701 72.7182 208.276 70.4637 207.833L70.6566 206.852C68.3741 206.403 66.1138 205.936 63.8768 205.45L63.6646 206.427C61.3756 205.93 59.1108 205.414 56.871 204.879L57.1034 203.906C54.8335 203.364 52.5897 202.802 50.373 202.222L50.1198 203.19C47.8564 202.597 45.621 201.985 43.4148 201.354L43.6897 200.393C41.4484 199.752 39.2375 199.091 37.0581 198.412L36.7604 199.366C34.5276 198.67 32.3276 197.954 30.1615 197.218L30.4832 196.271C28.268 195.519 26.0889 194.746 23.9471 193.953L23.6001 194.891C21.3958 194.076 19.2307 193.239 17.1061 192.382L17.4801 191.455C15.3088 190.579 13.1803 189.683 11.0965 188.766L10.6937 189.681C8.53993 188.733 6.43307 187.764 4.37487 186.773L4.80852 185.872C2.69704 184.856 0.637566 183.818 -1.36804 182.759L-1.83503 183.643C-3.92011 182.542 -5.94788 181.418 -7.91624 180.272L-7.41307 179.407C-9.44046 178.227 -11.4037 177.023 -13.3004 175.798L-13.843 176.638C-15.8283 175.355 -17.742 174.048 -19.5817 172.718L-18.9958 171.908C-20.8972 170.533 -22.7176 169.134 -24.4544 167.713L-25.0878 168.487C-26.9187 166.988 -28.6587 165.463 -30.3043 163.914L-29.6189 163.186C-31.3338 161.572 -32.9436 159.932 -34.4446 158.269L-35.187 158.939C-36.7796 157.174 -38.2531 155.382 -39.6028 153.564L-38.7998 152.968C-40.1903 151.095 -41.4457 149.196 -42.5614 147.275L-43.4262 147.777C-44.6153 145.729 -45.6503 143.653 -46.5253 141.552L-45.6021 141.168C-46.4872 139.042 -47.204 136.892 -47.7471 134.721L-48.7172 134.963C-49.282 132.705 -49.6638 130.422 -49.8556 128.117L-48.859 128.034C-48.9527 126.908 -49 125.776 -49 124.64C-49 123.503 -48.9527 122.372 -48.859 121.246L-49.8556 121.163C-49.6638 118.858 -49.282 116.574 -48.7172 114.316L-47.7471 114.559C-47.204 112.388 -46.4872 110.238 -45.6021 108.112L-46.5253 107.728C-45.6503 105.626 -44.6153 103.55 -43.4262 101.503L-42.5614 102.005C-41.4457 100.084 -40.1903 98.1853 -38.7998 96.3121L-39.6028 95.716C-38.2531 93.8978 -36.7796 92.1054 -35.187 90.3408L-34.4446 91.0108C-32.9436 89.3477 -31.3338 87.708 -29.6189 86.0937L-30.3043 85.3656C-28.6587 83.8165 -26.9187 82.2918 -25.0878 80.7932L-24.4544 81.567C-22.7176 80.1454 -20.8972 78.7465 -18.9958 77.3718L-19.5817 76.5614C-17.742 75.2313 -15.8282 73.9244 -13.843 72.6418L-13.3004 73.4818C-11.4037 72.2564 -9.44047 71.0529 -7.41307 69.8724L-7.91624 69.0082C-5.94788 67.8621 -3.92011 66.738 -1.83503 65.6369L-1.36804 66.5212C0.637562 65.462 2.69703 64.4239 4.80852 63.4077L4.37487 62.5066C6.43307 61.5161 8.53992 60.5466 10.6937 59.5989L11.0965 60.5142C13.1803 59.5972 15.3087 58.7006 17.4801 57.825L17.1061 56.8975C19.2307 56.0408 21.3958 55.2043 23.6 54.3887L23.9471 55.3265C26.0889 54.534 28.268 53.7612 30.4832 53.0088L30.1615 52.0619C32.3275 51.3261 34.5275 50.6098 36.7603 49.9135L37.058 50.8681C39.2374 50.1885 41.4484 49.5279 43.6897 48.887L43.4147 47.9255C45.621 47.2946 47.8564 46.6827 50.1197 46.0903L50.3729 47.0577C52.5897 46.4775 54.8335 45.9161 57.1034 45.3739L56.871 44.4012C59.1108 43.8662 61.3756 43.3499 63.6646 42.8528L63.8768 43.83C66.1138 43.3441 68.3741 42.8766 70.6566 42.4278L70.4637 41.4466C72.7182 41.0033 74.9942 40.5783 77.291 40.172L77.4652 41.1568C79.7262 40.7568 82.0074 40.3749 84.3078 40.0116L84.1518 39.0239C86.4305 38.664 88.728 38.3223 91.0433 37.9992L91.1815 38.9896C93.4538 38.6724 95.7433 38.3732 98.0495 38.0923L97.9285 37.0996C100.214 36.8212 102.515 36.5607 104.832 36.3184L104.936 37.313C107.225 37.0736 109.529 36.8521 111.847 36.6488L111.76 35.6526C114.059 35.451 116.372 35.2672 118.698 35.1017L118.769 36.0991C121.06 35.936 123.365 35.7906 125.681 35.6632L125.626 34.6647C127.93 34.538 130.247 34.429 132.574 34.3381L132.613 35.3373C134.918 35.2473 137.234 35.1751 139.56 35.1209L139.537 34.1212C141.84 34.0675 144.153 34.0316 146.476 34.0135L146.484 35.0135C147.643 35.0045 148.803 35 149.967 35C151.13 35 152.291 35.0045 153.45 35.0135L153.457 34.0135C155.78 34.0316 158.094 34.0675 160.397 34.1212L160.373 35.1209C162.7 35.1751 165.016 35.2473 167.32 35.3373L167.359 34.3381C169.687 34.429 172.003 34.538 174.307 34.6647L174.252 35.6632C176.569 35.7906 178.873 35.936 181.165 36.0991L181.236 35.1017C183.562 35.2672 185.875 35.451 188.174 35.6526L188.086 36.6488C190.405 36.8521 192.709 37.0736 194.998 37.313L195.102 36.3184C197.419 36.5607 199.72 36.8212 202.005 37.0996L201.884 38.0923C204.19 38.3732 206.48 38.6725 208.752 38.9896L208.89 37.9992C211.206 38.3223 213.503 38.664 215.782 39.0239L215.626 40.0116C217.926 40.3749 220.207 40.7568 222.468 41.1568L222.643 40.1721C224.939 40.5784 227.215 41.0033 229.47 41.4466L229.277 42.4278C231.56 42.8766 233.82 43.3441 236.057 43.83L236.269 42.8528C238.558 43.3499 240.823 43.8662 243.063 44.4012L242.83 45.3739C245.1 45.9161 247.344 46.4775 249.561 47.0577L249.814 46.0903C252.077 46.6827 254.313 47.2946 256.519 47.9255L256.244 48.887C258.485 49.5279 260.696 50.1885 262.876 50.8681L263.173 49.9135C265.406 50.6098 267.606 51.3261 269.772 52.0619L269.45 53.0088C271.666 53.7612 273.845 54.534 275.987 55.3265L276.334 54.3887C278.538 55.2043 280.703 56.0408 282.827 56.8975L282.453 57.825C284.625 58.7006 286.753 59.5972 288.837 60.5142L289.24 59.5989C291.394 60.5466 293.501 61.5161 295.559 62.5066L295.125 63.4077C297.237 64.4239 299.296 65.462 301.302 66.5212L301.769 65.6369C303.854 66.738 305.881 67.8621 307.85 69.0082L307.347 69.8724C309.374 71.0529 311.337 72.2564 313.234 73.4818L313.777 72.6418C315.762 73.9244 317.676 75.2313 319.515 76.5614L318.929 77.3718C320.831 78.7465 322.651 80.1454 324.388 81.567L325.021 80.7932C326.852 82.2919 328.592 83.8165 330.238 85.3656L329.552 86.0938C331.267 87.7081 332.877 89.3477 334.378 91.0108L335.121 90.3408C336.713 92.1054 338.187 93.8979 339.536 95.7161L338.733 96.3121C340.124 98.1853 341.379 100.084 342.495 102.005L343.36 101.503C344.549 103.55 345.584 105.626 346.459 107.728L345.536 108.112C346.421 110.238 347.138 112.388 347.681 114.559L348.651 114.316Z" stroke="#AB68FF" stroke-width="2" stroke-dasharray="7 7"/>
<path d="M388.651 80.3163C389.216 82.5745 389.597 84.8578 389.789 87.1632L388.793 87.2461C388.886 88.3721 388.934 89.5035 388.934 90.6399C388.934 91.7763 388.886 92.9077 388.793 94.0337L389.789 94.1166C389.597 96.422 389.216 98.7054 388.651 100.964L387.681 100.721C387.138 102.892 386.421 105.042 385.536 107.168L386.459 107.552C385.584 109.654 384.549 111.729 383.36 113.777L382.495 113.275C381.379 115.196 380.124 117.095 378.733 118.968L379.536 119.564C378.187 121.382 376.713 123.174 375.121 124.939L374.378 124.269C372.877 125.932 371.267 127.572 369.552 129.186L370.238 129.914C368.592 131.463 366.852 132.988 365.021 134.487L364.388 133.713C362.651 135.134 360.831 136.533 358.929 137.908L359.515 138.718C357.676 140.048 355.762 141.355 353.777 142.638L353.234 141.798C351.337 143.023 349.374 144.227 347.347 145.407L347.85 146.272C345.882 147.418 343.854 148.542 341.769 149.643L341.302 148.759C339.296 149.818 337.237 150.856 335.125 151.872L335.559 152.773C333.501 153.764 331.394 154.733 329.24 155.681L328.837 154.766C326.753 155.683 324.625 156.579 322.453 157.455L322.827 158.382C320.703 159.239 318.538 160.075 316.334 160.891L315.987 159.953C313.845 160.746 311.666 161.519 309.45 162.271L309.772 163.218C307.606 163.954 305.406 164.67 303.173 165.366L302.876 164.412C300.696 165.091 298.485 165.752 296.244 166.393L296.519 167.354C294.313 167.985 292.077 168.597 289.814 169.189L289.561 168.222C287.344 168.802 285.1 169.364 282.83 169.906L283.063 170.879C280.823 171.414 278.558 171.93 276.269 172.427L276.057 171.45C273.82 171.936 271.56 172.403 269.277 172.852L269.47 173.833C267.215 174.276 264.939 174.701 262.643 175.108L262.468 174.123C260.207 174.523 257.926 174.905 255.626 175.268L255.782 176.256C253.503 176.616 251.206 176.957 248.89 177.281L248.752 176.29C246.48 176.607 244.19 176.907 241.884 177.188L242.005 178.18C239.72 178.459 237.419 178.719 235.102 178.961L234.998 177.967C232.709 178.206 230.405 178.428 228.086 178.631L228.174 179.627C225.875 179.829 223.562 180.013 221.235 180.178L221.164 179.181C218.873 179.344 216.569 179.489 214.252 179.617L214.307 180.615C212.003 180.742 209.687 180.851 207.359 180.942L207.32 179.942C205.016 180.032 202.7 180.105 200.373 180.159L200.396 181.159C198.094 181.212 195.78 181.248 193.457 181.266L193.45 180.266C192.291 180.275 191.13 180.28 189.967 180.28C188.803 180.28 187.643 180.275 186.484 180.266L186.476 181.266C184.153 181.248 181.84 181.212 179.537 181.159L179.56 180.159C177.234 180.105 174.918 180.032 172.613 179.942L172.574 180.942C170.247 180.851 167.93 180.742 165.626 180.615L165.681 179.617C163.365 179.489 161.06 179.344 158.769 179.181L158.698 180.178C156.372 180.013 154.059 179.829 151.76 179.627L151.847 178.631C149.529 178.428 147.225 178.206 144.936 177.967L144.832 178.961C142.515 178.719 140.214 178.459 137.929 178.18L138.049 177.188C135.743 176.907 133.454 176.607 131.182 176.29L131.043 177.281C128.728 176.957 126.43 176.616 124.152 176.256L124.308 175.268C122.007 174.905 119.726 174.523 117.465 174.123L117.291 175.108C114.994 174.701 112.718 174.276 110.464 173.833L110.657 172.852C108.374 172.403 106.114 171.936 103.877 171.45L103.665 172.427C101.376 171.93 99.1108 171.414 96.871 170.879L97.1034 169.906C94.8335 169.364 92.5897 168.802 90.373 168.222L90.1198 169.19C87.8564 168.597 85.621 167.985 83.4148 167.354L83.6897 166.393C81.4484 165.752 79.2375 165.091 77.0581 164.412L76.7604 165.366C74.5276 164.67 72.3276 163.954 70.1615 163.218L70.4832 162.271C68.268 161.519 66.0889 160.746 63.9471 159.953L63.6001 160.891C61.3958 160.076 59.2307 159.239 57.1061 158.382L57.4801 157.455C55.3088 156.579 53.1803 155.683 51.0965 154.766L50.6937 155.681C48.5399 154.733 46.4331 153.764 44.3749 152.773L44.8085 151.872C42.697 150.856 40.6376 149.818 38.632 148.759L38.165 149.643C36.0799 148.542 34.0521 147.418 32.0838 146.272L32.5869 145.407C30.5595 144.227 28.5963 143.023 26.6996 141.798L26.157 142.638C24.1717 141.355 22.258 140.048 20.4183 138.718L21.0042 137.908C19.1028 136.533 17.2824 135.134 15.5456 133.713L14.9122 134.487C13.0813 132.988 11.3413 131.463 9.69567 129.914L10.3811 129.186C8.66618 127.572 7.05643 125.932 5.55537 124.269L4.81302 124.939C3.22036 123.174 1.74692 121.382 0.397216 119.564L1.20016 118.968C-0.190349 117.095 -1.44567 115.196 -2.56143 113.275L-3.42619 113.777C-4.61528 111.729 -5.6503 109.653 -6.52529 107.552L-5.60211 107.168C-6.48719 105.042 -7.20402 102.892 -7.74709 100.721L-8.7172 100.963C-9.28203 98.7053 -9.66379 96.422 -9.85561 94.1166L-8.85905 94.0337C-8.95274 92.9077 -9 91.7763 -9 90.6399C-9 89.5035 -8.95274 88.3721 -8.85905 87.2461L-9.8556 87.1632C-9.66379 84.8578 -9.28202 82.5745 -8.71719 80.3163L-7.74708 80.5589C-7.20401 78.3877 -6.48718 76.2379 -5.6021 74.1121L-6.52528 73.7278C-5.65029 71.6263 -4.61526 69.5503 -3.42617 67.5028L-2.56141 68.005C-1.44565 66.0837 -0.190329 64.1853 1.20018 62.3121L0.397235 61.716C1.74694 59.8978 3.22038 58.1054 4.81304 56.3408L5.55539 57.0108C7.05645 55.3477 8.66621 53.708 10.3811 52.0937L9.69569 51.3656C11.3413 49.8165 13.0813 48.2918 14.9122 46.7932L15.5456 47.567C17.2824 46.1454 19.1028 44.7465 21.0042 43.3718L20.4183 42.5614C22.258 41.2313 24.1718 39.9244 26.157 38.6418L26.6996 39.4818C28.5963 38.2564 30.5595 37.0529 32.5869 35.8724L32.0838 35.0082C34.0521 33.8621 36.0799 32.738 38.165 31.6369L38.632 32.5212C40.6376 31.462 42.697 30.4239 44.8085 29.4077L44.3749 28.5066C46.4331 27.5161 48.5399 26.5466 50.6937 25.5989L51.0965 26.5142C53.1803 25.5972 55.3087 24.7006 57.4801 23.825L57.1061 22.8975C59.2307 22.0408 61.3958 21.2043 63.6 20.3887L63.9471 21.3265C66.0889 20.534 68.268 19.7612 70.4832 19.0088L70.1615 18.0619C72.3275 17.3261 74.5275 16.6098 76.7603 15.9135L77.058 16.8681C79.2374 16.1885 81.4484 15.5279 83.6897 14.887L83.4147 13.9255C85.621 13.2946 87.8564 12.6827 90.1197 12.0903L90.3729 13.0577C92.5897 12.4775 94.8335 11.9161 97.1034 11.3739L96.871 10.4012C99.1108 9.86623 101.376 9.34992 103.665 8.85278L103.877 9.82999C106.114 9.34413 108.374 8.87659 110.657 8.42782L110.464 7.44661C112.718 7.00334 114.994 6.57835 117.291 6.17204L117.465 7.15675C119.726 6.75676 122.007 6.37492 124.308 6.01162L124.152 5.02386C126.431 4.66401 128.728 4.32232 131.043 3.99917L131.182 4.98957C133.454 4.67244 135.743 4.37322 138.049 4.09225L137.929 3.09959C140.214 2.82118 142.515 2.56067 144.832 2.3184L144.936 3.31298C147.225 3.07362 149.529 2.8521 151.847 2.64878L151.76 1.65261C154.059 1.451 156.372 1.26723 158.698 1.10165L158.769 2.09913C161.06 1.93604 163.365 1.79062 165.681 1.6632L165.626 0.66471C167.93 0.537972 170.247 0.428997 172.574 0.338095L172.613 1.33733C174.918 1.24733 177.234 1.17508 179.56 1.12089L179.537 0.121164C181.84 0.0675287 184.153 0.0315534 186.476 0.0135314L186.484 1.0135C187.643 1.00451 188.803 1 189.967 1C191.13 1 192.291 1.00451 193.45 1.0135L193.457 0.0135321C195.78 0.0315545 198.094 0.0675303 200.397 0.121166L200.373 1.1209C202.7 1.17508 205.016 1.24733 207.32 1.33734L207.359 0.338098C209.687 0.429 212.003 0.537977 214.307 0.664716L214.252 1.66321C216.569 1.79063 218.873 1.93604 221.165 2.09913L221.236 1.10166C223.562 1.26724 225.875 1.451 228.174 1.65261L228.086 2.64879C230.405 2.85211 232.709 3.07362 234.998 3.31299L235.102 2.31841C237.419 2.56068 239.72 2.82119 242.005 3.0996L241.884 4.09226C244.19 4.37323 246.48 4.67246 248.752 4.98958L248.89 3.99918C251.206 4.32233 253.503 4.66402 255.782 5.02388L255.626 6.01163C257.926 6.37493 260.207 6.75678 262.468 7.15676L262.643 6.17205C264.939 6.57835 267.215 7.00335 269.47 7.44662L269.277 8.42783C271.56 8.8766 273.82 9.34414 276.057 9.83L276.269 8.85279C278.558 9.34993 280.823 9.86624 283.063 10.4012L282.83 11.3739C285.1 11.9161 287.344 12.4775 289.561 13.0577L289.814 12.0903C292.077 12.6827 294.313 13.2946 296.519 13.9255L296.244 14.887C298.485 15.5279 300.696 16.1885 302.876 16.8681L303.173 15.9135C305.406 16.6098 307.606 17.3261 309.772 18.0619L309.45 19.0088C311.666 19.7612 313.845 20.534 315.987 21.3265L316.334 20.3887C318.538 21.2043 320.703 22.0408 322.827 22.8975L322.453 23.825C324.625 24.7006 326.753 25.5972 328.837 26.5142L329.24 25.5989C331.394 26.5466 333.501 27.5161 335.559 28.5066L335.125 29.4077C337.237 30.4239 339.296 31.462 341.302 32.5212L341.769 31.6369C343.854 32.738 345.881 33.8621 347.85 35.0082L347.347 35.8724C349.374 37.0529 351.337 38.2564 353.234 39.4818L353.777 38.6418C355.762 39.9244 357.676 41.2313 359.515 42.5614L358.929 43.3718C360.831 44.7465 362.651 46.1454 364.388 47.567L365.021 46.7932C366.852 48.2919 368.592 49.8165 370.238 51.3656L369.552 52.0938C371.267 53.7081 372.877 55.3477 374.378 57.0108L375.121 56.3408C376.713 58.1054 378.187 59.8979 379.536 61.7161L378.733 62.3121C380.124 64.1853 381.379 66.0837 382.495 68.005L383.36 67.5028C384.549 69.5504 385.584 71.6263 386.459 73.7278L385.536 74.1122C386.421 76.2379 387.138 78.3878 387.681 80.559L388.651 80.3163Z" stroke="#AB68FF" stroke-width="2" stroke-dasharray="7 7"/>
</svg>
