<svg width="764" height="986" viewBox="0 0 764 986" fill="none" xmlns="http://www.w3.org/2000/svg">
<g opacity="0.16">
<line x1="0.565148" y1="3" x2="0.565019" y2="985.555" stroke="#8F8F8F" stroke-width="1.1303"/>
<line x1="24.1755" y1="3" x2="24.1754" y2="985.555" stroke="#8F8F8F" stroke-width="1.1303"/>
<line x1="47.7849" y1="3" x2="47.7847" y2="985.555" stroke="#8F8F8F" stroke-width="1.1303"/>
<line x1="71.3952" y1="3" x2="71.3951" y2="985.555" stroke="#8F8F8F" stroke-width="1.1303"/>
<line x1="95.0056" y1="3" x2="95.0054" y2="985.555" stroke="#8F8F8F" stroke-width="1.1303"/>
<line x1="118.616" y1="3" x2="118.616" y2="985.555" stroke="#8F8F8F" stroke-width="1.1303"/>
<line x1="142.225" y1="3" x2="142.225" y2="985.555" stroke="#8F8F8F" stroke-width="1.1303"/>
<line x1="165.836" y1="3" x2="165.836" y2="985.555" stroke="#8F8F8F" stroke-width="1.1303"/>
<line x1="189.446" y1="3" x2="189.446" y2="985.555" stroke="#8F8F8F" stroke-width="1.1303"/>
<line x1="213.055" y1="3.00024" x2="213.055" y2="985.555" stroke="#8F8F8F" stroke-width="1.1303"/>
<line x1="236.666" y1="3.00024" x2="236.666" y2="985.555" stroke="#8F8F8F" stroke-width="1.1303"/>
<line x1="260.276" y1="3.00024" x2="260.276" y2="985.555" stroke="#8F8F8F" stroke-width="1.1303"/>
<line x1="283.886" y1="3.00024" x2="283.886" y2="985.555" stroke="#8F8F8F" stroke-width="1.1303"/>
<line x1="307.496" y1="3.00024" x2="307.496" y2="985.555" stroke="#8F8F8F" stroke-width="1.1303"/>
<line x1="331.106" y1="3.00024" x2="331.106" y2="985.555" stroke="#8F8F8F" stroke-width="1.1303"/>
<line x1="354.717" y1="3.00024" x2="354.716" y2="985.555" stroke="#8F8F8F" stroke-width="1.1303"/>
<line x1="378.327" y1="3.00024" x2="378.327" y2="985.555" stroke="#8F8F8F" stroke-width="1.1303"/>
<line x1="401.936" y1="3.00024" x2="401.936" y2="985.555" stroke="#8F8F8F" stroke-width="1.1303"/>
<line x1="425.547" y1="3.00024" x2="425.546" y2="985.555" stroke="#8F8F8F" stroke-width="1.1303"/>
<line x1="449.156" y1="3.00024" x2="449.156" y2="985.555" stroke="#8F8F8F" stroke-width="1.1303"/>
<line x1="472.767" y1="3.00024" x2="472.767" y2="985.555" stroke="#8F8F8F" stroke-width="1.1303"/>
<line x1="496.376" y1="3.00024" x2="496.376" y2="985.555" stroke="#8F8F8F" stroke-width="1.1303"/>
<line x1="519.987" y1="3.00024" x2="519.987" y2="985.555" stroke="#8F8F8F" stroke-width="1.1303"/>
<line x1="543.597" y1="3.00024" x2="543.597" y2="985.555" stroke="#8F8F8F" stroke-width="1.1303"/>
<line x1="567.208" y1="3.00024" x2="567.208" y2="985.555" stroke="#8F8F8F" stroke-width="1.1303"/>
<line x1="590.817" y1="3.00024" x2="590.817" y2="985.555" stroke="#8F8F8F" stroke-width="1.1303"/>
<line x1="614.427" y1="3.00024" x2="614.427" y2="985.555" stroke="#8F8F8F" stroke-width="1.1303"/>
<line x1="638.038" y1="3.00024" x2="638.038" y2="985.555" stroke="#8F8F8F" stroke-width="1.1303"/>
<line x1="661.647" y1="3.00024" x2="661.647" y2="985.555" stroke="#8F8F8F" stroke-width="1.1303"/>
<line x1="685.258" y1="3.00024" x2="685.257" y2="985.555" stroke="#8F8F8F" stroke-width="1.1303"/>
<line x1="708.868" y1="3.00024" x2="708.868" y2="985.555" stroke="#8F8F8F" stroke-width="1.1303"/>
<line x1="732.478" y1="3.00024" x2="732.478" y2="985.555" stroke="#8F8F8F" stroke-width="1.1303"/>
<line x1="756.088" y1="3.00024" x2="756.087" y2="985.555" stroke="#8F8F8F" stroke-width="1.1303"/>
<line x1="4.94068e-08" y1="2.43485" x2="764.872" y2="2.43492" stroke="#8F8F8F" stroke-width="1.1303"/>
<line x1="4.94068e-08" y1="25.9217" x2="764.872" y2="25.9217" stroke="#8F8F8F" stroke-width="1.1303"/>
<line x1="4.94068e-08" y1="49.4082" x2="764.872" y2="49.4083" stroke="#8F8F8F" stroke-width="1.1303"/>
<line x1="4.94068e-08" y1="72.8948" x2="764.872" y2="72.8949" stroke="#8F8F8F" stroke-width="1.1303"/>
<line x1="4.94068e-08" y1="96.3816" x2="764.872" y2="96.3817" stroke="#8F8F8F" stroke-width="1.1303"/>
<line x1="4.94068e-08" y1="119.868" x2="764.872" y2="119.868" stroke="#8F8F8F" stroke-width="1.1303"/>
<line x1="4.94068e-08" y1="143.355" x2="764.872" y2="143.355" stroke="#8F8F8F" stroke-width="1.1303"/>
<line x1="4.94068e-08" y1="166.841" x2="764.872" y2="166.841" stroke="#8F8F8F" stroke-width="1.1303"/>
<line x1="4.94068e-08" y1="190.328" x2="764.872" y2="190.328" stroke="#8F8F8F" stroke-width="1.1303"/>
<line x1="4.94068e-08" y1="213.815" x2="764.872" y2="213.815" stroke="#8F8F8F" stroke-width="1.1303"/>
<line x1="4.94068e-08" y1="237.301" x2="764.872" y2="237.301" stroke="#8F8F8F" stroke-width="1.1303"/>
<line x1="4.94068e-08" y1="260.788" x2="764.872" y2="260.788" stroke="#8F8F8F" stroke-width="1.1303"/>
<line x1="4.94068e-08" y1="284.275" x2="764.872" y2="284.275" stroke="#8F8F8F" stroke-width="1.1303"/>
<line x1="4.94068e-08" y1="307.761" x2="764.872" y2="307.761" stroke="#8F8F8F" stroke-width="1.1303"/>
<line x1="4.94068e-08" y1="331.248" x2="764.872" y2="331.248" stroke="#8F8F8F" stroke-width="1.1303"/>
<line x1="4.94068e-08" y1="354.734" x2="764.872" y2="354.734" stroke="#8F8F8F" stroke-width="1.1303"/>
<line x1="4.94068e-08" y1="378.221" x2="764.872" y2="378.221" stroke="#8F8F8F" stroke-width="1.1303"/>
<line x1="4.94068e-08" y1="401.708" x2="764.872" y2="401.708" stroke="#8F8F8F" stroke-width="1.1303"/>
<line x1="4.94068e-08" y1="425.194" x2="764.872" y2="425.194" stroke="#8F8F8F" stroke-width="1.1303"/>
<line x1="4.94068e-08" y1="448.681" x2="764.872" y2="448.681" stroke="#8F8F8F" stroke-width="1.1303"/>
<line x1="4.94068e-08" y1="472.168" x2="764.872" y2="472.168" stroke="#8F8F8F" stroke-width="1.1303"/>
<line x1="4.94068e-08" y1="495.655" x2="764.872" y2="495.655" stroke="#8F8F8F" stroke-width="1.1303"/>
<line x1="4.94068e-08" y1="519.141" x2="764.872" y2="519.141" stroke="#8F8F8F" stroke-width="1.1303"/>
<line x1="4.94068e-08" y1="542.628" x2="764.872" y2="542.628" stroke="#8F8F8F" stroke-width="1.1303"/>
<line x1="4.94068e-08" y1="566.114" x2="764.872" y2="566.114" stroke="#8F8F8F" stroke-width="1.1303"/>
<line x1="4.94068e-08" y1="589.601" x2="764.872" y2="589.601" stroke="#8F8F8F" stroke-width="1.1303"/>
<line x1="4.94068e-08" y1="613.088" x2="764.872" y2="613.088" stroke="#8F8F8F" stroke-width="1.1303"/>
<line x1="4.94068e-08" y1="636.574" x2="764.872" y2="636.574" stroke="#8F8F8F" stroke-width="1.1303"/>
<line x1="4.94068e-08" y1="660.061" x2="764.872" y2="660.061" stroke="#8F8F8F" stroke-width="1.1303"/>
<line x1="4.94068e-08" y1="683.548" x2="764.872" y2="683.548" stroke="#8F8F8F" stroke-width="1.1303"/>
<line x1="4.94068e-08" y1="707.034" x2="764.872" y2="707.034" stroke="#8F8F8F" stroke-width="1.1303"/>
<line x1="4.94068e-08" y1="730.521" x2="764.872" y2="730.521" stroke="#8F8F8F" stroke-width="1.1303"/>
<line x1="4.94068e-08" y1="754.007" x2="764.872" y2="754.007" stroke="#8F8F8F" stroke-width="1.1303"/>
<line x1="4.94068e-08" y1="777.494" x2="764.872" y2="777.494" stroke="#8F8F8F" stroke-width="1.1303"/>
<line x1="4.94068e-08" y1="800.98" x2="764.872" y2="800.98" stroke="#8F8F8F" stroke-width="1.1303"/>
<line x1="4.94068e-08" y1="824.467" x2="764.872" y2="824.467" stroke="#8F8F8F" stroke-width="1.1303"/>
<line x1="4.94068e-08" y1="847.954" x2="764.872" y2="847.954" stroke="#8F8F8F" stroke-width="1.1303"/>
<line x1="4.94068e-08" y1="871.441" x2="764.872" y2="871.441" stroke="#8F8F8F" stroke-width="1.1303"/>
<line x1="4.94068e-08" y1="894.927" x2="764.872" y2="894.927" stroke="#8F8F8F" stroke-width="1.1303"/>
<line x1="4.94068e-08" y1="918.414" x2="764.872" y2="918.414" stroke="#8F8F8F" stroke-width="1.1303"/>
<line x1="4.94068e-08" y1="941.9" x2="764.872" y2="941.9" stroke="#8F8F8F" stroke-width="1.1303"/>
<line x1="4.94068e-08" y1="965.387" x2="764.872" y2="965.388" stroke="#8F8F8F" stroke-width="1.1303"/>
<line x1="0.317383" y1="985.435" x2="765.317" y2="985.435" stroke="#8F8F8F" stroke-width="1.1303"/>
<rect y="884" width="765" height="102" fill="url(#paint0_linear_5003_2085)"/>
<rect x="765" y="102" width="765" height="102" transform="rotate(180 765 102)" fill="url(#paint1_linear_5003_2085)"/>
<rect x="102" y="3" width="983" height="102" transform="rotate(90 102 3)" fill="url(#paint2_linear_5003_2085)"/>
</g>
<defs>
<linearGradient id="paint0_linear_5003_2085" x1="382.5" y1="884" x2="382.5" y2="986" gradientUnits="userSpaceOnUse">
<stop stop-color="#0C0118" stop-opacity="0"/>
<stop offset="1" stop-color="#0C0118"/>
</linearGradient>
<linearGradient id="paint1_linear_5003_2085" x1="1147.5" y1="102" x2="1147.5" y2="204" gradientUnits="userSpaceOnUse">
<stop stop-color="#0C0118" stop-opacity="0"/>
<stop offset="1" stop-color="#0C0118"/>
</linearGradient>
<linearGradient id="paint2_linear_5003_2085" x1="593.5" y1="3" x2="593.5" y2="105" gradientUnits="userSpaceOnUse">
<stop stop-color="#0C0118" stop-opacity="0"/>
<stop offset="1" stop-color="#0C0118"/>
</linearGradient>
</defs>
</svg>
