<svg width="765" height="986" viewBox="0 0 765 986" fill="none" xmlns="http://www.w3.org/2000/svg">
<g opacity="0.16">
<line y1="-0.565148" x2="982.555" y2="-0.565148" transform="matrix(1.31134e-07 1 1 -1.31134e-07 765 3)" stroke="#8F8F8F" stroke-width="1.1303"/>
<line y1="-0.565148" x2="982.555" y2="-0.565148" transform="matrix(1.31134e-07 1 1 -1.31134e-07 741.39 3)" stroke="#8F8F8F" stroke-width="1.1303"/>
<line y1="-0.565148" x2="982.555" y2="-0.565148" transform="matrix(1.31134e-07 1 1 -1.31134e-07 717.78 3)" stroke="#8F8F8F" stroke-width="1.1303"/>
<line y1="-0.565148" x2="982.555" y2="-0.565148" transform="matrix(1.31134e-07 1 1 -1.31134e-07 694.17 3)" stroke="#8F8F8F" stroke-width="1.1303"/>
<line y1="-0.565148" x2="982.555" y2="-0.565148" transform="matrix(1.31134e-07 1 1 -1.31134e-07 670.56 3)" stroke="#8F8F8F" stroke-width="1.1303"/>
<line y1="-0.565148" x2="982.555" y2="-0.565148" transform="matrix(1.31134e-07 1 1 -1.31134e-07 646.949 3)" stroke="#8F8F8F" stroke-width="1.1303"/>
<line y1="-0.565148" x2="982.555" y2="-0.565148" transform="matrix(1.31134e-07 1 1 -1.31134e-07 623.34 3)" stroke="#8F8F8F" stroke-width="1.1303"/>
<line y1="-0.565148" x2="982.555" y2="-0.565148" transform="matrix(1.31134e-07 1 1 -1.31134e-07 599.729 3)" stroke="#8F8F8F" stroke-width="1.1303"/>
<line y1="-0.565148" x2="982.555" y2="-0.565148" transform="matrix(1.31134e-07 1 1 -1.31134e-07 576.119 3)" stroke="#8F8F8F" stroke-width="1.1303"/>
<line y1="-0.565148" x2="982.555" y2="-0.565148" transform="matrix(1.31134e-07 1 1 -1.31134e-07 552.51 3)" stroke="#8F8F8F" stroke-width="1.1303"/>
<line y1="-0.565148" x2="982.555" y2="-0.565148" transform="matrix(1.31134e-07 1 1 -1.31134e-07 528.899 3.00024)" stroke="#8F8F8F" stroke-width="1.1303"/>
<line y1="-0.565148" x2="982.555" y2="-0.565148" transform="matrix(1.31134e-07 1 1 -1.31134e-07 505.289 3.00024)" stroke="#8F8F8F" stroke-width="1.1303"/>
<line y1="-0.565148" x2="982.555" y2="-0.565148" transform="matrix(1.31134e-07 1 1 -1.31134e-07 481.679 3.00049)" stroke="#8F8F8F" stroke-width="1.1303"/>
<line y1="-0.565148" x2="982.555" y2="-0.565148" transform="matrix(1.31134e-07 1 1 -1.31134e-07 458.069 3.00049)" stroke="#8F8F8F" stroke-width="1.1303"/>
<line y1="-0.565148" x2="982.555" y2="-0.565148" transform="matrix(1.31134e-07 1 1 -1.31134e-07 434.459 3.00024)" stroke="#8F8F8F" stroke-width="1.1303"/>
<line y1="-0.565148" x2="982.555" y2="-0.565148" transform="matrix(1.31134e-07 1 1 -1.31134e-07 410.849 3.00024)" stroke="#8F8F8F" stroke-width="1.1303"/>
<line y1="-0.565148" x2="982.555" y2="-0.565148" transform="matrix(1.31134e-07 1 1 -1.31134e-07 387.238 3.00049)" stroke="#8F8F8F" stroke-width="1.1303"/>
<line y1="-0.565148" x2="982.555" y2="-0.565148" transform="matrix(1.31134e-07 1 1 -1.31134e-07 363.629 3.00049)" stroke="#8F8F8F" stroke-width="1.1303"/>
<line y1="-0.565148" x2="982.555" y2="-0.565148" transform="matrix(1.31134e-07 1 1 -1.31134e-07 340.019 3.00024)" stroke="#8F8F8F" stroke-width="1.1303"/>
<line y1="-0.565148" x2="982.555" y2="-0.565148" transform="matrix(1.31134e-07 1 1 -1.31134e-07 316.409 3.00049)" stroke="#8F8F8F" stroke-width="1.1303"/>
<line y1="-0.565148" x2="982.555" y2="-0.565148" transform="matrix(1.31134e-07 1 1 -1.31134e-07 292.798 3.00049)" stroke="#8F8F8F" stroke-width="1.1303"/>
<line y1="-0.565148" x2="982.555" y2="-0.565148" transform="matrix(1.31134e-07 1 1 -1.31134e-07 269.189 3.00024)" stroke="#8F8F8F" stroke-width="1.1303"/>
<line y1="-0.565148" x2="982.555" y2="-0.565148" transform="matrix(1.31134e-07 1 1 -1.31134e-07 245.578 3.00024)" stroke="#8F8F8F" stroke-width="1.1303"/>
<line y1="-0.565148" x2="982.555" y2="-0.565148" transform="matrix(1.31134e-07 1 1 -1.31134e-07 221.968 3.00024)" stroke="#8F8F8F" stroke-width="1.1303"/>
<line y1="-0.565148" x2="982.555" y2="-0.565148" transform="matrix(1.31134e-07 1 1 -1.31134e-07 198.357 3.00049)" stroke="#8F8F8F" stroke-width="1.1303"/>
<line y1="-0.565148" x2="982.555" y2="-0.565148" transform="matrix(1.31134e-07 1 1 -1.31134e-07 174.748 3.00049)" stroke="#8F8F8F" stroke-width="1.1303"/>
<line y1="-0.565148" x2="982.555" y2="-0.565148" transform="matrix(1.31134e-07 1 1 -1.31134e-07 151.138 3.00024)" stroke="#8F8F8F" stroke-width="1.1303"/>
<line y1="-0.565148" x2="982.555" y2="-0.565148" transform="matrix(1.31134e-07 1 1 -1.31134e-07 127.527 3.00024)" stroke="#8F8F8F" stroke-width="1.1303"/>
<line y1="-0.565148" x2="982.555" y2="-0.565148" transform="matrix(1.31134e-07 1 1 -1.31134e-07 103.918 3)" stroke="#8F8F8F" stroke-width="1.1303"/>
<line y1="-0.565148" x2="982.555" y2="-0.565148" transform="matrix(1.31134e-07 1 1 -1.31134e-07 80.3076 3.00024)" stroke="#8F8F8F" stroke-width="1.1303"/>
<line y1="-0.565148" x2="982.555" y2="-0.565148" transform="matrix(1.31134e-07 1 1 -1.31134e-07 56.6973 3.00024)" stroke="#8F8F8F" stroke-width="1.1303"/>
<line y1="-0.565148" x2="982.555" y2="-0.565148" transform="matrix(1.31134e-07 1 1 -1.31134e-07 33.0869 3)" stroke="#8F8F8F" stroke-width="1.1303"/>
<line y1="-0.565148" x2="982.555" y2="-0.565148" transform="matrix(1.31134e-07 1 1 -1.31134e-07 9.47754 3)" stroke="#8F8F8F" stroke-width="1.1303"/>
<line y1="-0.565148" x2="764.872" y2="-0.565148" transform="matrix(-1 8.74228e-08 8.74228e-08 1 765 3)" stroke="#8F8F8F" stroke-width="1.1303"/>
<line y1="-0.565148" x2="764.872" y2="-0.565148" transform="matrix(-1 8.74228e-08 8.74228e-08 1 765 26.4868)" stroke="#8F8F8F" stroke-width="1.1303"/>
<line y1="-0.565148" x2="764.872" y2="-0.565148" transform="matrix(-1 8.74228e-08 8.74228e-08 1 765 49.9734)" stroke="#8F8F8F" stroke-width="1.1303"/>
<line y1="-0.565148" x2="764.872" y2="-0.565148" transform="matrix(-1 8.74228e-08 8.74228e-08 1 765 73.46)" stroke="#8F8F8F" stroke-width="1.1303"/>
<line y1="-0.565148" x2="764.872" y2="-0.565148" transform="matrix(-1 8.74228e-08 8.74228e-08 1 765 96.9468)" stroke="#8F8F8F" stroke-width="1.1303"/>
<line y1="-0.565148" x2="764.872" y2="-0.565148" transform="matrix(-1 8.74228e-08 8.74228e-08 1 765 120.433)" stroke="#8F8F8F" stroke-width="1.1303"/>
<line y1="-0.565148" x2="764.872" y2="-0.565148" transform="matrix(-1 8.74228e-08 8.74228e-08 1 765 143.92)" stroke="#8F8F8F" stroke-width="1.1303"/>
<line y1="-0.565148" x2="764.872" y2="-0.565148" transform="matrix(-1 8.74228e-08 8.74228e-08 1 765 167.406)" stroke="#8F8F8F" stroke-width="1.1303"/>
<line y1="-0.565148" x2="764.872" y2="-0.565148" transform="matrix(-1 8.74228e-08 8.74228e-08 1 765 190.893)" stroke="#8F8F8F" stroke-width="1.1303"/>
<line y1="-0.565148" x2="764.872" y2="-0.565148" transform="matrix(-1 8.74228e-08 8.74228e-08 1 765 214.38)" stroke="#8F8F8F" stroke-width="1.1303"/>
<line y1="-0.565148" x2="764.872" y2="-0.565148" transform="matrix(-1 8.74228e-08 8.74228e-08 1 765 237.866)" stroke="#8F8F8F" stroke-width="1.1303"/>
<line y1="-0.565148" x2="764.872" y2="-0.565148" transform="matrix(-1 8.74228e-08 8.74228e-08 1 765 261.353)" stroke="#8F8F8F" stroke-width="1.1303"/>
<line y1="-0.565148" x2="764.872" y2="-0.565148" transform="matrix(-1 8.74228e-08 8.74228e-08 1 765 284.84)" stroke="#8F8F8F" stroke-width="1.1303"/>
<line y1="-0.565148" x2="764.872" y2="-0.565148" transform="matrix(-1 8.74228e-08 8.74228e-08 1 765 308.326)" stroke="#8F8F8F" stroke-width="1.1303"/>
<line y1="-0.565148" x2="764.872" y2="-0.565148" transform="matrix(-1 8.74228e-08 8.74228e-08 1 765 331.813)" stroke="#8F8F8F" stroke-width="1.1303"/>
<line y1="-0.565148" x2="764.872" y2="-0.565148" transform="matrix(-1 8.74228e-08 8.74228e-08 1 765 355.3)" stroke="#8F8F8F" stroke-width="1.1303"/>
<line y1="-0.565148" x2="764.872" y2="-0.565148" transform="matrix(-1 8.74228e-08 8.74228e-08 1 765 378.786)" stroke="#8F8F8F" stroke-width="1.1303"/>
<line y1="-0.565148" x2="764.872" y2="-0.565148" transform="matrix(-1 8.74228e-08 8.74228e-08 1 765 402.273)" stroke="#8F8F8F" stroke-width="1.1303"/>
<line y1="-0.565148" x2="764.872" y2="-0.565148" transform="matrix(-1 8.74228e-08 8.74228e-08 1 765 425.76)" stroke="#8F8F8F" stroke-width="1.1303"/>
<line y1="-0.565148" x2="764.872" y2="-0.565148" transform="matrix(-1 8.74228e-08 8.74228e-08 1 765 449.246)" stroke="#8F8F8F" stroke-width="1.1303"/>
<line y1="-0.565148" x2="764.872" y2="-0.565148" transform="matrix(-1 8.74228e-08 8.74228e-08 1 765 472.733)" stroke="#8F8F8F" stroke-width="1.1303"/>
<line y1="-0.565148" x2="764.872" y2="-0.565148" transform="matrix(-1 8.74228e-08 8.74228e-08 1 765 496.22)" stroke="#8F8F8F" stroke-width="1.1303"/>
<line y1="-0.565148" x2="764.872" y2="-0.565148" transform="matrix(-1 8.74228e-08 8.74228e-08 1 765 519.706)" stroke="#8F8F8F" stroke-width="1.1303"/>
<line y1="-0.565148" x2="764.872" y2="-0.565148" transform="matrix(-1 8.74228e-08 8.74228e-08 1 765 543.193)" stroke="#8F8F8F" stroke-width="1.1303"/>
<line y1="-0.565148" x2="764.872" y2="-0.565148" transform="matrix(-1 8.74228e-08 8.74228e-08 1 765 566.679)" stroke="#8F8F8F" stroke-width="1.1303"/>
<line y1="-0.565148" x2="764.872" y2="-0.565148" transform="matrix(-1 8.74228e-08 8.74228e-08 1 765 590.166)" stroke="#8F8F8F" stroke-width="1.1303"/>
<line y1="-0.565148" x2="764.872" y2="-0.565148" transform="matrix(-1 8.74228e-08 8.74228e-08 1 765 613.653)" stroke="#8F8F8F" stroke-width="1.1303"/>
<line y1="-0.565148" x2="764.872" y2="-0.565148" transform="matrix(-1 8.74228e-08 8.74228e-08 1 765 637.139)" stroke="#8F8F8F" stroke-width="1.1303"/>
<line y1="-0.565148" x2="764.872" y2="-0.565148" transform="matrix(-1 8.74228e-08 8.74228e-08 1 765 660.626)" stroke="#8F8F8F" stroke-width="1.1303"/>
<line y1="-0.565148" x2="764.872" y2="-0.565148" transform="matrix(-1 8.74228e-08 8.74228e-08 1 765 684.113)" stroke="#8F8F8F" stroke-width="1.1303"/>
<line y1="-0.565148" x2="764.872" y2="-0.565148" transform="matrix(-1 8.74228e-08 8.74228e-08 1 765 707.599)" stroke="#8F8F8F" stroke-width="1.1303"/>
<line y1="-0.565148" x2="764.872" y2="-0.565148" transform="matrix(-1 8.74228e-08 8.74228e-08 1 765 731.086)" stroke="#8F8F8F" stroke-width="1.1303"/>
<line y1="-0.565148" x2="764.872" y2="-0.565148" transform="matrix(-1 8.74228e-08 8.74228e-08 1 765 754.573)" stroke="#8F8F8F" stroke-width="1.1303"/>
<line y1="-0.565148" x2="764.872" y2="-0.565148" transform="matrix(-1 8.74228e-08 8.74228e-08 1 765 778.059)" stroke="#8F8F8F" stroke-width="1.1303"/>
<line y1="-0.565148" x2="764.872" y2="-0.565148" transform="matrix(-1 8.74228e-08 8.74228e-08 1 765 801.545)" stroke="#8F8F8F" stroke-width="1.1303"/>
<line y1="-0.565148" x2="764.872" y2="-0.565148" transform="matrix(-1 8.74228e-08 8.74228e-08 1 765 825.032)" stroke="#8F8F8F" stroke-width="1.1303"/>
<line y1="-0.565148" x2="764.872" y2="-0.565148" transform="matrix(-1 8.74228e-08 8.74228e-08 1 765 848.519)" stroke="#8F8F8F" stroke-width="1.1303"/>
<line y1="-0.565148" x2="764.872" y2="-0.565148" transform="matrix(-1 8.74228e-08 8.74228e-08 1 765 872.006)" stroke="#8F8F8F" stroke-width="1.1303"/>
<line y1="-0.565148" x2="764.872" y2="-0.565148" transform="matrix(-1 8.74228e-08 8.74228e-08 1 765 895.492)" stroke="#8F8F8F" stroke-width="1.1303"/>
<line y1="-0.565148" x2="764.872" y2="-0.565148" transform="matrix(-1 8.74228e-08 8.74228e-08 1 765 918.979)" stroke="#8F8F8F" stroke-width="1.1303"/>
<line y1="-0.565148" x2="764.872" y2="-0.565148" transform="matrix(-1 8.74228e-08 8.74228e-08 1 765 942.465)" stroke="#8F8F8F" stroke-width="1.1303"/>
<line y1="-0.565148" x2="764.872" y2="-0.565148" transform="matrix(-1 8.74228e-08 8.74228e-08 1 765 965.953)" stroke="#8F8F8F" stroke-width="1.1303"/>
<line y1="-0.565148" x2="765" y2="-0.565148" transform="matrix(-1 8.74228e-08 8.74228e-08 1 764.683 986)" stroke="#8F8F8F" stroke-width="1.1303"/>
<rect width="765" height="102" transform="matrix(-1 0 0 1 765 884)" fill="url(#paint0_linear_5003_2005)"/>
<rect width="765" height="102" transform="matrix(1 8.74228e-08 8.74228e-08 -1 0 102)" fill="url(#paint1_linear_5003_2005)"/>
<rect width="983" height="102" transform="matrix(4.37114e-08 1 1 -4.37114e-08 663 3)" fill="url(#paint2_linear_5003_2005)"/>
</g>
<defs>
<linearGradient id="paint0_linear_5003_2005" x1="382.5" y1="0" x2="382.5" y2="102" gradientUnits="userSpaceOnUse">
<stop stop-color="#0C0118" stop-opacity="0"/>
<stop offset="1" stop-color="#0C0118"/>
</linearGradient>
<linearGradient id="paint1_linear_5003_2005" x1="382.5" y1="0" x2="382.5" y2="102" gradientUnits="userSpaceOnUse">
<stop stop-color="#0C0118" stop-opacity="0"/>
<stop offset="1" stop-color="#0C0118"/>
</linearGradient>
<linearGradient id="paint2_linear_5003_2005" x1="491.5" y1="0" x2="491.5" y2="102" gradientUnits="userSpaceOnUse">
<stop stop-color="#0C0118" stop-opacity="0"/>
<stop offset="1" stop-color="#0C0118"/>
</linearGradient>
</defs>
</svg>
