<svg width="83" height="82" viewBox="0 0 83 82" fill="none" xmlns="http://www.w3.org/2000/svg">
<rect x="0.5" width="82" height="82" rx="41" fill="#AB68FF"/>
<path d="M31.8021 51.2362C31.8021 45.6844 34.0876 40.6588 37.7626 37.0408C35.7822 36.1318 33.5872 35.6119 31.2636 35.6119C22.6342 35.6119 15.6387 42.6075 15.6387 51.2362C15.6387 59.8655 22.6342 66.8611 31.2636 66.8611C33.5872 66.8611 35.7816 66.3413 37.7626 65.4322C34.0876 61.8142 31.8021 56.7887 31.8021 51.2362Z" fill="white"/>
<path d="M51.7366 50.6977C46.1847 50.6977 41.1592 48.4122 37.5412 44.7354C36.6321 46.7176 36.1123 48.9126 36.1123 51.2363C36.1123 59.8656 43.1079 66.8612 51.7366 66.8612C60.3659 66.8612 67.3614 59.8656 67.3614 51.2363C67.3614 48.9126 66.8416 46.7183 65.9326 44.7354C62.3146 48.4122 57.289 50.6977 51.7366 50.6977Z" fill="white"/>
<path d="M51.7363 15.1382C49.4126 15.1382 47.2183 15.658 45.2354 16.567C48.9122 20.1851 51.1977 25.2106 51.1977 30.7631C51.1977 36.3149 48.9122 41.3404 45.2354 44.9585C47.2176 45.8675 49.4126 46.3873 51.7363 46.3873C60.3656 46.3873 67.3612 39.3918 67.3612 30.7631C67.3612 22.1337 60.3656 15.1382 51.7363 15.1382Z" fill="white"/>
<path d="M31.2636 31.3016C36.8154 31.3016 41.8409 33.5872 45.459 37.2621C46.368 35.2817 46.8878 33.0867 46.8878 30.7631C46.8878 22.1337 39.8923 15.1382 31.2636 15.1382C22.6342 15.1382 15.6387 22.1337 15.6387 30.7631C15.6387 33.0867 16.1585 35.2811 17.0675 37.2621C20.6856 33.5872 25.7111 31.3016 31.2636 31.3016Z" fill="white"/>
</svg>
