<svg width="60" height="60" viewBox="0 0 60 60" fill="none" xmlns="http://www.w3.org/2000/svg">
<g filter="url(#filter0_d_5003_2595)">
<path d="M24.2666 30.7046C17.8284 30.7046 12.584 35.9421 12.584 42.3872C12.584 43.0773 13.1429 43.6362 13.833 43.6362H34.7002C35.3903 43.6362 35.9492 43.0773 35.9492 42.3872C35.9492 35.9421 30.7117 30.7046 24.2666 30.7046ZM15.1648 41.1313C15.7789 36.6598 19.6225 33.1957 24.2666 33.1957C28.9107 33.1957 32.7543 36.6529 33.3684 41.1313H15.1648Z" fill="white"/>
<path d="M24.2667 27.6892C27.3789 27.6892 29.9114 25.1636 29.9114 22.0446C29.9114 18.9255 27.3858 16.3999 24.2667 16.3999C21.1477 16.3999 18.6221 18.9255 18.6221 22.0446C18.629 25.1636 21.1546 27.6892 24.2667 27.6892ZM24.2667 18.9048C26.0057 18.9048 27.4065 20.3125 27.4134 22.0446C27.4203 23.7766 26.0057 25.1912 24.2667 25.1912C22.5278 25.1912 21.127 23.7835 21.1201 22.0515C21.127 20.3125 22.5347 18.9117 24.2667 18.9048Z" fill="white"/>
<path d="M37.6338 21.7753H46.6666C47.3566 21.7753 47.9156 21.2164 47.9156 20.5263C47.9156 19.8363 47.3566 19.2773 46.6666 19.2773H37.6338C36.9437 19.2773 36.3848 19.8363 36.3848 20.5263C36.3848 21.2164 36.9437 21.7753 37.6338 21.7753Z" fill="white"/>
<path d="M46.6661 25.8674H37.6333C36.9432 25.8536 36.3705 26.3988 36.3567 27.0888C36.3429 27.7789 36.888 28.3516 37.5781 28.3654H37.6402H46.673C47.3631 28.3792 47.9358 27.8341 47.9496 27.144C47.9634 26.454 47.4183 25.8812 46.7282 25.8674C46.7075 25.8674 46.6868 25.8674 46.6661 25.8674Z" fill="white"/>
<path d="M46.6666 32.4575H37.6338C36.9437 32.4575 36.3848 33.0165 36.3848 33.7065C36.3848 34.3966 36.9437 34.9555 37.6338 34.9555H46.6666C47.3566 34.9555 47.9156 34.3966 47.9156 33.7065C47.9156 33.0165 47.3566 32.4575 46.6666 32.4575Z" fill="white"/>
</g>
<defs>
<filter id="filter0_d_5003_2595" x="-6" y="-6" width="72" height="72" filterUnits="userSpaceOnUse" color-interpolation-filters="sRGB">
<feFlood flood-opacity="0" result="BackgroundImageFix"/>
<feColorMatrix in="SourceAlpha" type="matrix" values="0 0 0 0 0 0 0 0 0 0 0 0 0 0 0 0 0 0 127 0" result="hardAlpha"/>
<feOffset/>
<feGaussianBlur stdDeviation="3"/>
<feComposite in2="hardAlpha" operator="out"/>
<feColorMatrix type="matrix" values="0 0 0 0 0.670588 0 0 0 0 0.407843 0 0 0 0 1 0 0 0 0.6 0"/>
<feBlend mode="normal" in2="BackgroundImageFix" result="effect1_dropShadow_5003_2595"/>
<feBlend mode="normal" in="SourceGraphic" in2="effect1_dropShadow_5003_2595" result="shape"/>
</filter>
</defs>
</svg>
