<svg width="60" height="60" viewBox="0 0 60 60" fill="none" xmlns="http://www.w3.org/2000/svg">
<g filter="url(#filter0_d_5003_2616)">
<path d="M35.0342 43.5618L35.3809 44.4961C35.7081 44.3747 36.0355 44.2402 36.3543 44.0964L35.9443 43.188C35.6463 43.3225 35.34 43.4482 35.0342 43.5618Z" fill="white"/>
<path d="M34.9903 24.0679C34.72 24.0654 34.4603 24.1254 34.2305 24.2348V23.8179C34.2646 22.5297 32.7697 21.6511 31.6627 22.2881C31.293 21.0755 29.6623 20.6661 28.7617 21.5933C28.2768 22.0751 28.2272 22.6186 28.2522 23.2663C27.1394 22.7145 25.7375 23.5896 25.7661 24.8408V27.2304C24.6574 26.6747 23.2527 27.5547 23.2827 28.8035V32.2989L23.2828 32.3074C23.3179 34.3498 24.0628 36.0681 25.4369 37.2767C26.6525 38.3459 28.2749 38.9346 30.0055 38.9346H30.0065C31.7376 38.9344 33.3606 38.3451 34.5765 37.2755C35.9508 36.0666 36.6954 34.3486 36.73 32.3073L36.73 31.0907H35.7335V32.2945C35.6658 36.1713 32.7178 37.9377 30.0064 37.9381C30.0061 37.9381 30.0059 37.9381 30.0055 37.9381C27.2952 37.9381 24.3481 36.172 24.2793 32.2945V28.8035C24.3106 27.8208 25.735 27.8214 25.7661 28.8035V32.5449H26.7627V24.8407C26.7887 23.8857 28.1737 23.8449 28.2523 24.799L28.2526 30.5498H29.2492L29.2488 22.8234C29.2803 21.8378 30.7176 21.8376 30.7505 22.8234L30.7507 30.5498H31.7473L31.7478 23.8178C31.7792 22.8354 33.203 22.8362 33.2341 23.8178V30.5497H34.2306V25.8077C34.2637 24.8215 35.7008 24.8223 35.7335 25.8077V30.0571H36.7301V25.8077C36.73 24.8483 35.9495 24.0679 34.9903 24.0679Z" fill="white"/>
<path d="M28.2529 31.5464H29.2495V32.543H28.2529V31.5464Z" fill="white"/>
<path d="M30.751 31.5464H31.7475V32.543H30.751V31.5464Z" fill="white"/>
<path d="M33.2344 31.5464H34.2309V32.543H33.2344V31.5464Z" fill="white"/>
<path d="M21.5361 24.0293H22.5327V25.0259H21.5361V24.0293Z" fill="white"/>
<path d="M23.5293 24.0293H24.5259V25.0259H23.5293V24.0293Z" fill="white"/>
<path d="M47 23.0734L41.1845 13L38.7268 17.257C36.1537 15.4919 33.151 14.5614 30.0066 14.5614C25.8806 14.5614 22.0016 16.1682 19.0841 19.0859C16.1665 22.0036 14.5598 25.8829 14.5598 30.0091C14.5598 33.3269 15.5896 36.4743 17.5413 39.1338L13 47H28.0637L27.0039 45.1644C27.9887 45.3584 28.9944 45.4568 30.0066 45.4568C31.4859 45.4568 32.9493 45.2479 34.3562 44.8358L34.076 43.8794C32.9183 44.2184 31.7193 44.4103 30.5048 44.4516V42.4562C33.5643 42.3352 36.3434 41.1058 38.451 39.1589L39.8675 40.5755C38.9688 41.414 37.9551 42.1458 36.8412 42.745L37.3133 43.6226C42.3342 40.922 45.4533 35.7056 45.4533 30.0092C45.4533 27.5948 44.8876 25.2144 43.8116 23.0734H47V23.0734ZM45.2739 22.0767H37.095L41.1845 14.9933L45.2739 22.0767ZM37.2265 19.8559C35.2466 18.4424 32.9426 17.6555 30.5049 17.5611V15.5669C33.2906 15.6604 35.942 16.5381 38.2268 18.1231L37.2265 19.8559ZM21.5589 20.8563L20.1526 19.4498C22.6227 17.143 25.8995 15.6905 29.5083 15.5676V17.5613C26.4981 17.6817 23.6953 18.8884 21.5589 20.8563ZM15.5653 30.5074H17.5604C17.6407 32.5262 18.2082 34.4904 19.2155 36.2338L18.0895 38.1842C16.5238 35.9106 15.658 33.2799 15.5653 30.5074ZM14.7261 46.0034L20.5319 35.9469L26.3376 46.0034H14.7261ZM24.7863 41.3231C26.2641 42.0061 27.8642 42.3919 29.5083 42.4568V44.4517C28.4288 44.4149 27.3606 44.2588 26.3239 43.9864L24.7863 41.3231ZM30.0066 41.4703C27.804 41.4703 25.6716 40.8459 23.8283 39.6636L20.5319 33.9538L19.7991 35.223C18.9778 33.6163 18.5461 31.8308 18.5461 30.0092C18.5461 29.0384 18.6676 28.0743 18.9072 27.1435L17.9421 26.8951C17.7227 27.7474 17.5956 28.6251 17.5606 29.5109H15.5659C15.6889 25.9019 17.1412 22.6249 19.4479 20.1547L20.8532 21.56C19.7268 22.7774 18.8335 24.2295 18.2584 25.8566L19.198 26.1887C20.8133 21.6186 25.1569 18.548 30.0066 18.548C32.4506 18.548 34.7642 19.299 36.7256 20.7235L35.3689 23.0735H39.1313C40.6603 25.0797 41.4672 27.4724 41.4672 30.0092C41.4672 36.3288 36.326 41.4703 30.0066 41.4703ZM42.4529 30.5074H44.4483C44.3273 34.0437 42.9223 37.3533 40.5723 39.8707L39.1558 38.454C41.1026 36.3463 42.3319 33.5671 42.4529 30.5074ZM44.4481 29.5108H42.4538C42.3641 27.187 41.6462 24.9876 40.3567 23.0734H42.6865C43.766 25.044 44.3704 27.2542 44.4481 29.5108Z" fill="white"/>
<path d="M43.5 21.0527L41.1846 17.042L38.8691 21.0527H43.5ZM41.7739 20.0561H40.5952L41.1846 19.0352L41.7739 20.0561Z" fill="white"/>
<path d="M20.0342 38.4805H21.0307V42.467H20.0342V38.4805Z" fill="white"/>
<path d="M20.0342 43.4634H21.0307V44.46H20.0342V43.4634Z" fill="white"/>
</g>
<defs>
<filter id="filter0_d_5003_2616" x="-6" y="-6" width="72" height="72" filterUnits="userSpaceOnUse" color-interpolation-filters="sRGB">
<feFlood flood-opacity="0" result="BackgroundImageFix"/>
<feColorMatrix in="SourceAlpha" type="matrix" values="0 0 0 0 0 0 0 0 0 0 0 0 0 0 0 0 0 0 127 0" result="hardAlpha"/>
<feOffset/>
<feGaussianBlur stdDeviation="3"/>
<feComposite in2="hardAlpha" operator="out"/>
<feColorMatrix type="matrix" values="0 0 0 0 0.670588 0 0 0 0 0.407843 0 0 0 0 1 0 0 0 0.6 0"/>
<feBlend mode="normal" in2="BackgroundImageFix" result="effect1_dropShadow_5003_2616"/>
<feBlend mode="normal" in="SourceGraphic" in2="effect1_dropShadow_5003_2616" result="shape"/>
</filter>
</defs>
</svg>
