<svg width="60" height="60" viewBox="0 0 60 60" fill="none" xmlns="http://www.w3.org/2000/svg">
<g filter="url(#filter0_d_5003_2608)">
<path d="M46.9545 32.9521V31.715C46.954 31.2404 46.7653 30.7855 46.4297 30.4499C46.0942 30.1144 45.6392 29.9256 45.1647 29.9251H38.0672C37.5926 29.9256 37.1376 30.1143 36.802 30.4499C36.4665 30.7855 36.2777 31.2404 36.2772 31.715V32.9521C36.2777 33.2 36.3297 33.4451 36.4299 33.6718C36.5302 33.8985 36.6765 34.1019 36.8596 34.269C36.676 34.4364 36.5294 34.6402 36.4292 34.8675C36.3289 35.0947 36.2772 35.3404 36.2772 35.5888V36.8259C36.2774 37.0739 36.3293 37.3191 36.4294 37.5459C36.5295 37.7727 36.6758 37.9763 36.8589 38.1435C36.6756 38.3108 36.5291 38.5146 36.429 38.7417C36.3288 38.9689 36.2772 39.2144 36.2772 39.4626V40.6998C36.2774 40.9477 36.3293 41.1929 36.4294 41.4197C36.5295 41.6466 36.6758 41.8501 36.8589 42.0173C36.6756 42.1847 36.5291 42.3884 36.429 42.6156C36.3288 42.8427 36.2772 43.0883 36.2772 43.3365V44.5736C36.2777 45.0481 36.4665 45.5031 36.802 45.8387C37.1376 46.1743 37.5926 46.363 38.0672 46.3635H45.1647C45.6392 46.363 46.0942 46.1743 46.4298 45.8387C46.7653 45.5031 46.954 45.0481 46.9545 44.5736V43.3365C46.9546 43.0883 46.9029 42.8427 46.8028 42.6156C46.7026 42.3884 46.5562 42.1847 46.3729 42.0173C46.556 41.8501 46.7022 41.6466 46.8024 41.4197C46.9025 41.1929 46.9543 40.9477 46.9545 40.6998V39.4624C46.9546 39.2142 46.903 38.9687 46.8028 38.7416C46.7027 38.5144 46.5563 38.3107 46.3729 38.1433C46.556 37.9761 46.7022 37.7726 46.8024 37.5458C46.9025 37.319 46.9543 37.0739 46.9545 36.8259V35.5888C46.9546 35.3406 46.9029 35.0951 46.8028 34.868C46.7027 34.6409 46.5563 34.4371 46.373 34.2697C46.5561 34.1025 46.7023 33.8989 46.8024 33.6721C46.9025 33.4453 46.9543 33.2001 46.9545 32.9521ZM46.0115 44.5736C46.0112 44.7981 45.9219 45.0134 45.7632 45.1721C45.6044 45.3309 45.3892 45.4202 45.1647 45.4205H38.0672C37.8426 45.4202 37.6274 45.3309 37.4686 45.1721C37.3098 45.0134 37.2205 44.7981 37.2203 44.5736V43.3365C37.2205 43.112 37.3098 42.8967 37.4686 42.7379C37.6274 42.5792 37.8426 42.4899 38.0672 42.4896H45.1647C45.3892 42.4899 45.6044 42.5792 45.7632 42.738C45.9219 42.8967 46.0112 43.112 46.0115 43.3365V44.5736ZM45.1647 41.5466H38.0672C38.0652 41.5466 38.0634 41.5466 38.0615 41.5466H38.0591C37.8361 41.5438 37.6231 41.4534 37.4662 41.295C37.3093 41.1366 37.2209 40.9228 37.2203 40.6998V39.4624C37.2205 39.2379 37.3098 39.0227 37.4686 38.8639C37.6274 38.7051 37.8426 38.6158 38.0672 38.6156H45.1647C45.3892 38.6159 45.6044 38.7052 45.7632 38.8639C45.9219 39.0227 46.0112 39.2379 46.0115 39.4624V40.6995C46.0108 40.9226 45.9225 41.1364 45.7655 41.2949C45.6085 41.4533 45.3955 41.5436 45.1725 41.5464H45.1701L45.1647 41.5466ZM45.1647 37.6728H38.0672H38.0619H38.0592C37.8362 37.67 37.6232 37.5796 37.4662 37.4212C37.3093 37.2628 37.2209 37.049 37.2203 36.8259V35.5888C37.2205 35.3643 37.3098 35.149 37.4686 34.9903C37.6274 34.8315 37.8426 34.7422 38.0672 34.742H45.1647C45.3892 34.7422 45.6044 34.8316 45.7632 34.9903C45.9219 35.1491 46.0112 35.3643 46.0115 35.5888V36.8259C46.0108 37.0491 45.9224 37.263 45.7653 37.4214C45.6082 37.5799 45.3951 37.6702 45.172 37.6728H45.1694H45.1647ZM45.1647 33.799H38.0672C38.0642 33.799 38.0614 33.799 38.0584 33.799C38.0569 33.799 38.0555 33.799 38.054 33.799C37.832 33.7946 37.6205 33.7036 37.4647 33.5453C37.3089 33.3871 37.2212 33.1742 37.2203 32.9522V31.715C37.2205 31.4905 37.3098 31.2752 37.4686 31.1164C37.6274 30.9577 37.8426 30.8684 38.0672 30.8682H45.1647C45.3892 30.8684 45.6044 30.9577 45.7632 31.1165C45.9219 31.2752 46.0112 31.4905 46.0115 31.715V32.9521C46.0109 33.1753 45.9224 33.3892 45.7653 33.5477C45.6082 33.7061 45.3951 33.7964 45.1719 33.799H45.1697H45.1647ZM26.0575 27.0034L14.4248 35.3183C14.323 35.39 14.197 35.4186 14.0742 35.3978C13.9515 35.3769 13.8419 35.3084 13.7695 35.2071C13.6971 35.1058 13.6677 34.9799 13.6878 34.857C13.7078 34.7341 13.7757 34.6241 13.8765 34.5511L25.5094 26.2362C25.9032 25.9517 26.3865 25.819 26.8703 25.8626C27.3541 25.9062 27.8059 26.1231 28.1426 26.4733L30.718 29.1261C30.9039 29.318 31.1542 29.4345 31.4208 29.4529C31.6875 29.4714 31.9515 29.3905 32.1621 29.226L40.513 22.7187L38.3944 22.4906C38.3325 22.4845 38.2724 22.4661 38.2176 22.4365C38.1629 22.407 38.1145 22.367 38.0753 22.3186C38.036 22.2703 38.0068 22.2147 37.9891 22.1551C37.9715 22.0954 37.9659 22.0328 37.9725 21.971C37.9792 21.9091 37.998 21.8492 38.028 21.7946C38.0579 21.7401 38.0984 21.692 38.147 21.6531C38.1956 21.6143 38.2514 21.5854 38.3112 21.5683C38.371 21.5511 38.4336 21.5459 38.4954 21.5531L41.7776 21.9064C41.84 21.9131 41.9005 21.9322 41.9555 21.9627C42.0104 21.9931 42.0588 22.0342 42.0976 22.0836C42.1365 22.133 42.1651 22.1896 42.1817 22.2502C42.1984 22.3108 42.2027 22.3741 42.1946 22.4364L41.7376 25.9285C41.7202 26.0515 41.655 26.1627 41.5561 26.2379C41.4573 26.3131 41.3327 26.3463 41.2095 26.3302C41.0863 26.314 40.9745 26.25 40.8983 26.1519C40.8221 26.0537 40.7877 25.9295 40.8026 25.8062L41.1111 23.4486L32.7418 29.9699C32.348 30.2775 31.8543 30.4286 31.3557 30.3941C30.8572 30.3596 30.3891 30.1419 30.0414 29.7829L27.466 27.1302C27.286 26.9428 27.0443 26.8268 26.7855 26.8035C26.5266 26.7802 26.2681 26.8512 26.0575 27.0034ZM34.155 34.6702L32.1836 33.1582C32.1013 33.095 32.0004 33.0608 31.8967 33.0608C31.7929 33.0608 31.6921 33.095 31.6097 33.1582L29.6383 34.6702C29.5809 34.7142 29.5344 34.7709 29.5024 34.8357C29.4704 34.9006 29.4538 34.972 29.4538 35.0444V45.892C29.4538 46.017 29.5034 46.137 29.5919 46.2254C29.6803 46.3138 29.8002 46.3635 29.9253 46.3635H33.8681C33.9932 46.3635 34.1131 46.3138 34.2015 46.2254C34.29 46.137 34.3397 46.017 34.3397 45.892V35.0444C34.3396 34.972 34.323 34.9006 34.291 34.8357C34.259 34.7708 34.2124 34.7142 34.155 34.6702ZM33.3966 45.4207H30.3968V35.2769L31.8967 34.1265L33.3966 35.2769V45.4207ZM27.5142 33.0519L25.5428 31.5399C25.4605 31.4768 25.3596 31.4426 25.2559 31.4426C25.1521 31.4426 25.0513 31.4768 24.9689 31.5399L22.9975 33.0519C22.9401 33.096 22.8936 33.1526 22.8616 33.2175C22.8296 33.2823 22.813 33.3537 22.813 33.4261V45.892C22.813 46.017 22.8626 46.137 22.9511 46.2254C23.0395 46.3138 23.1594 46.3635 23.2845 46.3635H27.2273C27.3523 46.3635 27.4723 46.3138 27.5607 46.2254C27.6491 46.137 27.6988 46.017 27.6988 45.892V33.4261C27.6988 33.3537 27.6821 33.2823 27.6501 33.2175C27.6181 33.1526 27.5716 33.096 27.5142 33.0519ZM26.7558 45.4205H23.7561V33.6586L25.2559 32.5083L26.7558 33.6586L26.7558 45.4205ZM20.8734 38.1021L18.902 36.59C18.8196 36.5269 18.7188 36.4927 18.615 36.4927C18.5113 36.4927 18.4105 36.5269 18.3281 36.59L16.3567 38.1021C16.2993 38.1461 16.2528 38.2028 16.2208 38.2677C16.1888 38.3325 16.1721 38.4039 16.1721 38.4762V45.892C16.1721 46.017 16.2218 46.137 16.3102 46.2254C16.3986 46.3138 16.5186 46.3635 16.6436 46.3635H20.5865C20.6484 46.3635 20.7097 46.3513 20.7669 46.3276C20.8241 46.3039 20.8761 46.2692 20.9199 46.2254C20.9637 46.1816 20.9984 46.1296 21.0221 46.0724C21.0458 46.0152 21.058 45.9539 21.058 45.892V38.4762C21.058 38.4039 21.0413 38.3325 21.0093 38.2677C20.9773 38.2028 20.9308 38.1461 20.8734 38.1021ZM20.115 45.4205H17.1151V38.7088L18.615 37.5584L20.115 38.7088V45.4205ZM30.9651 25.0439C32.2847 25.0431 33.5631 24.5848 34.5827 23.747C35.6022 22.9093 36.2998 21.7439 36.5565 20.4496C36.8131 19.1552 36.6131 17.8119 35.9904 16.6485C35.3677 15.485 34.3609 14.5735 33.1415 14.0692C31.9221 13.5649 30.5655 13.499 29.303 13.8827C28.0404 14.2664 26.95 15.0761 26.2174 16.1736C25.4848 17.2712 25.1555 18.5888 25.2855 19.9019C25.4155 21.2151 25.9968 22.4426 26.9303 23.3752C27.4598 23.9054 28.0888 24.3257 28.7812 24.6121C29.4736 24.8984 30.2158 25.0452 30.9651 25.0439ZM27.5967 15.9717C28.2629 15.3055 29.1117 14.8518 30.0358 14.668C30.9598 14.4842 31.9176 14.5785 32.788 14.9391C33.6585 15.2996 34.4024 15.9102 34.9259 16.6935C35.4493 17.4769 35.7287 18.3979 35.7287 19.34C35.7287 20.2822 35.4493 21.2032 34.9259 21.9865C34.4024 22.7699 33.6585 23.3805 32.788 23.741C31.9176 24.1015 30.9598 24.1959 30.0358 24.0121C29.1117 23.8282 28.2629 23.3746 27.5967 22.7084C27.1526 22.267 26.8002 21.7422 26.5597 21.1641C26.3192 20.5861 26.1954 19.9661 26.1954 19.34C26.1954 18.7139 26.3192 18.094 26.5597 17.5159C26.8002 16.9379 27.1526 16.413 27.5967 15.9717ZM28.8321 20.6573C28.8182 20.5969 28.8164 20.5344 28.8267 20.4734C28.8369 20.4123 28.8592 20.3539 28.892 20.3014C28.9249 20.2489 28.9678 20.2034 29.0182 20.1675C29.0687 20.1316 29.1257 20.106 29.186 20.0921C29.2464 20.0782 29.3089 20.0764 29.3699 20.0867C29.431 20.0969 29.4895 20.1191 29.5419 20.152C29.5944 20.1849 29.6399 20.2278 29.6758 20.2782C29.7117 20.3287 29.7374 20.3857 29.7512 20.446C29.9175 21.1696 30.6777 21.4043 31.358 21.3157C31.7323 21.267 32.0282 21.075 32.1302 20.8146C32.2059 20.6214 32.1627 20.413 32.0085 20.2279C31.7451 19.9113 31.4647 19.8694 31.0403 19.8058C30.7611 19.7723 30.4862 19.7096 30.22 19.6188C30.2151 19.617 30.2102 19.6152 30.2054 19.6132C29.481 19.3197 29.0543 18.7505 29.0642 18.0909C29.0743 17.418 29.5299 16.8168 30.2252 16.559C30.3239 16.5225 30.4249 16.4923 30.5276 16.4688V15.9784C30.5276 15.8534 30.5773 15.7335 30.6657 15.645C30.7541 15.5566 30.8741 15.5069 30.9991 15.5069C31.1242 15.5069 31.2441 15.5566 31.3325 15.645C31.4209 15.7335 31.4706 15.8534 31.4706 15.9784V16.4572C32.1687 16.6069 32.7609 17.1121 33.053 17.8834C33.0959 18.0001 33.0911 18.1289 33.0395 18.242C32.9879 18.355 32.8937 18.4431 32.7775 18.4872C32.6613 18.5312 32.5324 18.5275 32.4188 18.477C32.3053 18.4265 32.2163 18.3332 32.1712 18.2174C31.8982 17.4966 31.2477 17.1854 30.553 17.4428C30.2306 17.5623 30.0112 17.8283 30.0074 18.1046C30.0035 18.366 30.1971 18.59 30.5525 18.7359C30.7567 18.8024 30.9671 18.8483 31.1804 18.8729C31.6772 18.9474 32.2403 19.0318 32.7335 19.6242C33.1066 20.0723 33.2094 20.6458 33.0085 21.1584C32.7775 21.7478 32.2062 22.1561 31.4801 22.2506C31.477 22.251 31.474 22.251 31.471 22.2515V22.7014C31.471 22.8265 31.4213 22.9464 31.3329 23.0348C31.2444 23.1232 31.1245 23.1729 30.9995 23.1729C30.8744 23.1729 30.7545 23.1232 30.666 23.0348C30.5776 22.9464 30.5279 22.8265 30.5279 22.7014V22.2239C29.6713 22.0535 29.0215 21.4805 28.8321 20.6573Z" fill="white"/>
</g>
<defs>
<filter id="filter0_d_5003_2608" x="-6" y="-6" width="72" height="72" filterUnits="userSpaceOnUse" color-interpolation-filters="sRGB">
<feFlood flood-opacity="0" result="BackgroundImageFix"/>
<feColorMatrix in="SourceAlpha" type="matrix" values="0 0 0 0 0 0 0 0 0 0 0 0 0 0 0 0 0 0 127 0" result="hardAlpha"/>
<feOffset/>
<feGaussianBlur stdDeviation="3"/>
<feComposite in2="hardAlpha" operator="out"/>
<feColorMatrix type="matrix" values="0 0 0 0 0.670588 0 0 0 0 0.407843 0 0 0 0 1 0 0 0 0.6 0"/>
<feBlend mode="normal" in2="BackgroundImageFix" result="effect1_dropShadow_5003_2608"/>
<feBlend mode="normal" in="SourceGraphic" in2="effect1_dropShadow_5003_2608" result="shape"/>
</filter>
</defs>
</svg>
